<svg role="img" xmlns="http://www.w3.org/2000/svg" width="1254" height="1254" viewBox="0 0 1254 1254" version="1.1">
	<path d="M 601 15.697 C 597.425 15.869, 587.075 16.710, 578 17.567 C 377.191 36.526, 206.963 148.458, 99.044 332.500 C 88.312 350.802, 68.834 390.442, 60.962 410 C 31.617 482.912, 17.043 552.217, 15.330 627 C 13.652 700.238, 24.699 767.225, 50.210 838.500 C 69.029 891.078, 99.479 947.269, 135.016 995 C 185.846 1063.269, 249.522 1120.059, 324.500 1163.992 C 355.474 1182.142, 401.162 1202.804, 435.222 1214.066 C 546.460 1250.847, 658.448 1255.604, 772.856 1228.409 C 928.028 1191.525, 1066.095 1089.212, 1150.544 948.529 C 1191.114 880.944, 1218.797 803.881, 1231.397 723.451 C 1241.843 656.772, 1239.596 584.040, 1224.956 514.972 C 1207.362 431.971, 1175.047 356.486, 1125.865 283.500 C 1084.283 221.793, 1031.970 167.692, 970.389 122.709 C 875.602 53.470, 751.414 14.186, 630.500 15.194 C 617.850 15.299, 604.575 15.526, 601 15.697 M 614 40.639 C 527.223 44.246, 449.213 64.110, 374.700 101.571 C 318.272 129.941, 273.646 161.925, 227.630 206.982 C 130.287 302.294, 64.751 429.596, 46.578 558.670 C 41.851 592.243, 40.726 611.228, 41.285 648 C 41.893 687.992, 43.914 707.894, 51.133 745 C 67.826 830.794, 105.210 913.907, 159.311 985.500 C 226.329 1074.187, 320.969 1144.532, 426.196 1183.874 C 477.209 1202.947, 535.022 1215.118, 593.338 1219.062 C 615.868 1220.586, 666.990 1219.757, 687 1217.544 C 753.592 1210.178, 809.990 1195.449, 866 1170.797 C 911.350 1150.838, 962.642 1118.751, 1001.469 1086.053 C 1123.466 983.313, 1195.744 844.030, 1210.556 683.132 C 1212.411 662.983, 1212.655 618.502, 1211.026 597.500 C 1203.464 500.010, 1171.640 404.548, 1118.185 319 C 1066.840 236.831, 995.909 166.522, 916.500 119.087 C 851.123 80.033, 778.877 55.050, 702.500 45.084 C 678.504 41.953, 634.983 39.767, 614 40.639 M 241.272 451.250 C 231.819 479.438, 216.611 525.450, 207.475 553.500 C 198.340 581.550, 187.563 614.625, 183.526 627 C 179.488 639.375, 171.823 663, 166.492 679.500 C 161.161 696, 151.036 727.275, 143.991 749 C 136.946 770.725, 126.601 802.631, 121.001 819.902 C 115.402 837.174, 110.586 851.916, 110.299 852.663 C 109.864 853.796, 117.329 853.977, 155.556 853.760 L 201.334 853.500 204.570 843.500 C 229.279 767.159, 292.377 578.796, 318.799 502.500 C 326.812 479.363, 331.563 465.881, 350.076 413.750 L 354.959 400 306.709 400 L 258.459 400 241.272 451.250 M 425.730 486.750 C 409.966 534.462, 392.294 588.350, 386.459 606.500 C 372.552 649.760, 344.701 735.661, 318.061 817.463 C 311.977 836.143, 307 852.006, 307 852.713 C 307 853.743, 315.836 853.996, 351.250 853.980 L 395.500 853.960 446.752 699.730 C 474.941 614.904, 504.341 527.050, 512.086 504.500 C 519.831 481.950, 531.068 449.212, 537.057 431.750 L 547.947 400 501.169 400 L 454.391 400 425.730 486.750 M 591 626.954 L 591 854 636.500 854 L 682 854 682 775 L 682 696 699.754 696 L 717.509 696 726.948 716.750 C 732.139 728.163, 744.108 754.375, 753.546 775 C 762.983 795.625, 774.897 821.837, 780.022 833.250 L 789.340 854 838.737 854 L 888.135 854 887.437 851.750 C 886.639 849.177, 854.383 773.602, 838.461 737 C 816.403 686.294, 812 676.008, 812 675.192 C 812 674.731, 815.243 672.137, 819.207 669.429 C 849.581 648.675, 870.882 609.439, 876.089 564.653 C 877.805 549.888, 876.770 520.240, 874.066 506.701 C 862.387 448.235, 828.698 413.939, 771.500 402.290 C 764.567 400.878, 752.001 400.611, 677.250 400.284 L 591 399.907 591 626.954 M 918 627 L 918 854 963.364 854 L 1008.728 854 1009.202 849.750 C 1009.463 847.413, 1009.574 808.487, 1009.448 763.250 L 1009.220 681 1067.620 681 L 1126.019 681 1125.759 631.750 L 1125.500 582.500 1067.641 582.274 L 1009.781 582.048 1009.450 539.142 L 1009.119 496.237 1013.072 495.604 C 1015.246 495.257, 1044.582 494.999, 1078.263 495.031 L 1139.500 495.089 1139.760 447.545 L 1140.019 400 1029.010 400 L 918 400 918 627 M 682.667 495.667 C 682.300 496.033, 682 519.208, 682 547.167 L 682 598 712.250 597.965 C 733.130 597.941, 744.849 597.511, 750.084 596.577 C 767.946 593.391, 779.928 582.796, 785.228 565.500 C 787.826 557.023, 788.282 537.786, 786.094 529 C 782.953 516.389, 775.578 506.343, 765.413 500.832 C 756.354 495.920, 748.278 495, 714.209 495 C 697.227 495, 683.033 495.300, 682.667 495.667" stroke="none" fill="#000000" fill-rule="evenodd"/>
<title>rf-main</title>
</svg>