<svg role="img" xmlns="http://www.w3.org/2000/svg" width="1254" height="1254" viewBox="0 0 1254 1254">
  <title>RF — white mark on a transparent square</title>
  <g transform="matrix(2.204 0 0 2.204 -1280.564 -754.805)" fill="#ffffff" fill-rule="evenodd">
    <path d="M 591 626.954 L 591 854 636.500 854 L 682 854 682 775 L 682 696 699.754 696 L 717.509 696 726.948 716.750 C 732.139 728.163, 744.108 754.375, 753.546 775 C 762.983 795.625, 774.897 821.837, 780.022 833.250 L 789.340 854 838.737 854 L 888.135 854 887.437 851.750 C 886.639 849.177, 854.383 773.602, 838.461 737 C 816.403 686.294, 812 676.008, 812 675.192 C 812 674.731, 815.243 672.137, 819.207 669.429 C 849.581 648.675, 870.882 609.439, 876.089 564.653 C 877.805 549.888, 876.770 520.240, 874.066 506.701 C 862.387 448.235, 828.698 413.939, 771.500 402.290 C 764.567 400.878, 752.001 400.611, 677.250 400.284 L 591 399.907 591 626.954 M 682.667 495.667 C 682.300 496.033, 682 519.208, 682 547.167 L 682 598 712.250 597.965 C 733.130 597.941, 744.849 597.511, 750.084 596.577 C 767.946 593.391, 779.928 582.796, 785.228 565.500 C 787.826 557.023, 788.282 537.786, 786.094 529 C 782.953 516.389, 775.578 506.343, 765.413 500.832 C 756.354 495.920, 748.278 495, 714.209 495 C 697.227 495, 683.033 495.300, 682.667 495.667"/>
    <path d="M 918 627 L 918 854 963.364 854 L 1008.728 854 1009.202 849.750 C 1009.463 847.413, 1009.574 808.487, 1009.448 763.250 L 1009.220 681 1067.620 681 L 1126.019 681 1125.759 631.750 L 1125.500 582.500 1067.641 582.274 L 1009.781 582.048 1009.450 539.142 L 1009.119 496.237 1013.072 495.604 C 1015.246 495.257, 1044.582 494.999, 1078.263 495.031 L 1139.500 495.089 1139.760 447.545 L 1140.019 400 1029.010 400 L 918 400 918 627"/>
  </g>
</svg>
